<svg height="496pt" viewBox="0 0 496 496" width="496pt" xmlns="http://www.w3.org/2000/svg"><path d="m168 64v-16c0-26.472656-21.527344-48-48-48-20.855469 0-38.59375 13.382812-45.199219 32h-34.800781v16h32v16c0 26.472656 21.527344 48 48 48s48-21.527344 48-48zm-48-48c11.792969 0 22 6.480469 27.550781 16h-55.101562c5.550781-9.519531 15.757812-16 27.550781-16zm32 48c0 17.648438-14.351562 32-32 32s-32-14.351562-32-32v-16h64zm0 0"/><path d="m448 432c-14.871094 0-27.289062 10.230469-30.863281 24h-42.273438c-3.574219-13.769531-15.992187-24-30.863281-24s-27.289062 10.230469-30.863281 24h-11.207031l-51.554688-169.382812c3.464844-4.289063 5.625-9.664063 5.625-15.585938 0-6.574219-2.664062-13.007812-7.3125-17.65625l-72.6875-72.6875v-28.6875c0-22.054688-17.945312-40-40-40h-32c-22.054688 0-40 17.945312-40 40v12.6875l-56.6875 56.6875c-4.648438 4.648438-7.3125 11.082031-7.3125 17.65625v8c0 13.769531 11.199219 24.96875 24.96875 24.96875 6.574219 0 13.007812-2.664062 17.65625-7.3125l21.375-21.375v19.71875l-23.761719 95.03125c-.160156.632812-.238281 1.28125-.238281 1.9375v104c0 17.648438 14.351562 32 32 32s32-14.351562 32-32v-86.542969l8-21.335937v107.878906c0 17.648438 14.351562 32 32 32s32-14.351562 32-32v-204.6875l29.375 29.375c4.648438 4.648438 11.082031 7.3125 17.65625 7.3125h8c1.816406 0 3.585938-.222656 5.296875-.59375l52.015625 170.921875c1.03125 3.367187 4.136719 5.671875 7.65625 5.671875h17.136719c3.574219 13.769531 15.992187 24 30.863281 24s27.289062-10.230469 30.863281-24h42.273438c3.574219 13.769531 15.992187 24 30.863281 24s27.289062-10.230469 30.863281-24h17.136719v-16h-17.136719c-3.574219-13.769531-15.992187-24-30.863281-24zm-416.6875-178.625c-1.671875 1.671875-3.984375 2.625-6.34375 2.625-4.945312 0-8.96875-4.023438-8.96875-8.96875v-8c0-2.359375.953125-4.671875 2.625-6.34375l45.375-45.375v33.375zm112.6875 226.625c-8.824219 0-16-7.175781-16-16v-152c0-3.863281-2.769531-7.175781-6.566406-7.871094-3.800782-.671875-7.5625 1.4375-8.921875 5.0625l-24 64c-.34375.898438-.511719 1.847656-.511719 2.808594v88c0 8.824219-7.175781 16-16 16s-16-7.175781-16-16v-103.015625l22.238281-88.984375h81.761719v192c0 8.824219-7.175781 16-16 16zm16-224h-80v-104c0-13.230469 10.769531-24 24-24h32c13.230469 0 24 10.769531 24 24v12.6875l-21.375-21.375c-4.648438-4.648438-11.082031-7.3125-17.65625-7.3125-13.769531 0-24.96875 11.199219-24.96875 24.96875v8c0 6.574219 2.664062 13.007812 7.3125 17.65625l56.6875 56.6875zm63.03125 24c-2.359375 0-4.671875-.953125-6.34375-2.625l-102.0625-102.0625c-1.671875-1.671875-2.625-3.984375-2.625-6.34375v-8c0-4.945312 4.023438-8.96875 8.96875-8.96875 2.359375 0 4.671875.953125 6.34375 2.625l110.0625 110.0625c1.671875 1.671875 2.625 3.984375 2.625 6.34375 0 4.945312-4.023438 8.96875-8.96875 8.96875zm120.96875 200c-8.824219 0-16-7.175781-16-16s7.175781-16 16-16 16 7.175781 16 16-7.175781 16-16 16zm104 0c-8.824219 0-16-7.175781-16-16s7.175781-16 16-16 16 7.175781 16 16-7.175781 16-16 16zm0 0"/><path d="m488 328h-32v-72c0-4.425781-3.574219-8-8-8h-80c-4.425781 0-8 3.574219-8 8v72h-32c-4.425781 0-8 3.574219-8 8v80c0 4.425781 3.574219 8 8 8h160c4.425781 0 8-3.574219 8-8v-80c0-4.425781-3.574219-8-8-8zm-112-64h24v32h16v-32h24v64h-64zm-40 80h24v32h16v-32h24v64h-64zm144 64h-64v-64h24v32h16v-32h24zm0 0"/></svg>