<?xml version="1.0" encoding="UTF-8" standalone="no"?>
<svg
   xmlns:dc="http://purl.org/dc/elements/1.1/"
   xmlns:cc="http://creativecommons.org/ns#"
   xmlns:rdf="http://www.w3.org/1999/02/22-rdf-syntax-ns#"
   xmlns:svg="http://www.w3.org/2000/svg"
   xmlns="http://www.w3.org/2000/svg"
   id="svg8"
   xml:space="preserve"
   width="459.99799"
   viewBox="0 0 459.99799 65.120003"
   version="1.1"
   height="65.120003"><metadata
     id="metadata14"><rdf:RDF><cc:Work
         rdf:about=""><dc:format>image/svg+xml</dc:format><dc:type
           rdf:resource="http://purl.org/dc/dcmitype/StillImage" /><dc:title></dc:title></cc:Work></rdf:RDF></metadata><defs
     id="defs12" /><g
     transform="translate(-26.001,-223.44)"
     id="comp_x5F_86-dhl"><g
       id="g4"><path
         id="path2"
         d="m 197.063,288.487 h 42.19 l 16.029,-21.706 h -42.19 z M 26.001,275.334 v 4.6 h 58.793 l 3.378,-4.6 z m 124.271,-8.553 c -6.254,0 -4.313,-2.589 -3.306,-3.954 2.013,-2.729 5.462,-7.475 7.474,-10.134 2.013,-2.66 2.013,-4.242 -2.012,-4.242 h -36.656 l -29.54,40.108 h 71.946 c 23.79,0 37.015,-16.173 41.112,-21.778 z m 228.203,-4.958 28.247,-38.383 H 362.015 L 333.77,261.823 Z M 94.498,266.781 H 26.001 v 4.6 h 65.118 z m 79.78,-19.119 c -2.013,2.73 -5.39,7.476 -7.403,10.207 -1.006,1.437 -2.947,3.954 3.306,3.954 h 32.775 c 0,0 5.247,-7.189 9.703,-13.228 6.039,-8.193 0.503,-25.155 -20.988,-25.155 H 106.933 L 92.27,243.42 h 80.068 c 4.024,0.001 3.953,1.582 1.94,4.242 z M 26.001,288.487 h 52.54 l 3.379,-4.601 H 26.001 Z m 232.153,0 h 42.192 l 16.028,-21.706 h -42.19 c -0.072,0 -16.03,21.706 -16.03,21.706 z m 159.565,0.073 h 68.28 v -4.601 h -64.902 z m 16.027,-21.779 -3.378,4.6 h 55.631 v -4.6 z m -9.702,13.153 h 61.955 v -4.6 H 427.42 Z M 306.024,223.44 289.852,245.434 H 271.02 l 16.174,-21.994 h -42.191 l -28.247,38.383 h 103.212 l 28.246,-38.383 z m 24.08,43.341 c 0,0 -3.093,4.239 -4.6,6.254 -5.319,7.186 -0.649,15.524 16.674,15.524 h 67.779 l 16.026,-21.778 z" /></g></g><g
     transform="translate(-26.001,-223.44)"
     id="Layer_1" /></svg>