<?xml version="1.0" encoding="UTF-8" standalone="no"?>
<svg
   viewBox="0 0 77.060402 76.230659"
   height="76.230659mm"
   width="77.060402mm">

  <g
     transform="translate(-62.176937,-137.96131)"
     >
    <path
       d="m 99.866919,137.96131 h 1.000001 l 0.9625,0.4 c 0,0 0,0 14.5375,14.44999 0.625,0.82501 0.4125,1.45001 -0.625,1.45001 0,0 0,0 -6.025,0 -1.0375,0 -1.8625,0.825 -1.8625,1.86249 0,0 0,0 0,10.72501 0,1.03749 -0.8375,1.86249 -2.0875,1.86249 0,0 0,0 -10.587501,0 -1.0375,0 -1.875,-0.825 -1.875,-1.86249 0,0 0,0 0,-10.72501 0,-1.03749 -0.825,-1.86249 -1.875,-1.86249 H 84.99192 c -1.0375,0 -1.25,-0.625 -0.625,-1.45001 0,0 0,0 14.549999,-14.44999 z"
        />
    <path
       d="m 95.177841,182.81697 c 0,0 0,0 10.587499,0 1.25,0 2.0875,0.825 2.0875,1.8625 0,0 0,0 0,11.35 0,1.2375 0.825,2.0625 1.8625,2.0625 h 5.6125 c 1.0375,0 1.45,0.6125 0.625,1.2375 0,0 0,0 -14.125,14.2375 -0.425,0.4125 -0.9375,0.625 -1.4625,0.625 -0.512498,0 -1.037498,-0.2125 -1.449998,-0.625 0,0 0,0 -14.125,-14.2375 -0.8375,-0.625 -0.425,-1.2375 0.6125,-1.2375 0,0 0,0 6.024999,0 1.05,0 1.875,-0.825 1.875,-2.0625 0,0 0,0 0,-11.35 0,-1.0375 0.8375,-1.8625 1.875,-1.8625 z"
        />
    <path
       d="m 123.63109,160.71535 c 0.23751,-0.075 0.55001,0.075 0.86251,0.4875 0,0 0,0 14.125,13.825 0.82499,0.825 0.82499,2.075 0,2.6875 0,0 0,0 -14.125,14.0375 -0.3125,0.4125 -0.625,0.5125 -0.86251,0.3875 -0.2375,-0.125 -0.38749,-0.4875 -0.38749,-1.0125 v -29.5125 c 0,-0.5125 0.15,-0.825 0.38749,-0.9 z"
        />
    <path
       d="m 78.170687,160.41275 c 0.2625,0.125 0.425,0.4875 0.425,1.0125 v 30.125 c 0,0.525 -0.16251,0.8375 -0.425,0.9375 -0.25,0.1 -0.6125,0 -1.0375,-0.3125 0,0 0,0 -14.3375,-14.45 -0.825,-0.6125 -0.825,-1.8625 0,-2.6875 0,0 0,0 14.3375,-14.2375 0.42499,-0.4125 0.7875,-0.5125 1.0375,-0.3875 z"
        />
  </g>
</svg>
