<?xml version="1.0" encoding="iso-8859-1"?>
<!-- Generator: Adobe Illustrator 21.0.0, SVG Export Plug-In . SVG Version: 6.00 Build 0)  -->
<svg xmlns="http://www.w3.org/2000/svg" xmlns:xlink="http://www.w3.org/1999/xlink" version="1.1" id="Capa_1" x="0px" y="0px" viewBox="0 0 511.573 511.573" style="enable-background:new 0 0 511.573 511.573;" xml:space="preserve" width="512" height="512">
<path d="M457.656,283.734c-12.53-16.243-12.658-38.168-0.318-54.558l29.195-38.773c2.962-3.933,3.805-9.067,2.256-13.741  c-1.548-4.673-5.291-8.288-10.015-9.675l-45.2-13.263c-19.685-5.775-32.676-23.438-32.324-43.951l0.829-48.529  c0.084-4.922-2.253-9.572-6.252-12.442c-4.001-2.87-9.155-3.594-13.789-1.94l-44.363,15.838  c-19.318,6.899-40.212,0.246-51.985-16.557L257.834,6.393c-3.756-5.359-10.554-7.667-16.798-5.696  c-6.242,1.97-10.486,7.759-10.486,14.305V48.36l-16.088-16.088c-5.857-5.857-15.355-5.857-21.213,0  c-5.858,5.857-5.858,15.355,0,21.213l37.301,37.301v41.574l-29.785-29.785c-5.857-5.857-15.355-5.857-21.213,0  c-5.858,5.857-5.858,15.355,0,21.213l50.998,50.998v55.02l-47.293-27.305l-18.817-70.227c-2.145-8.003-10.372-12.746-18.371-10.607  c-8.002,2.145-12.751,10.369-10.607,18.371l11.052,41.249l-36.071-20.826l-13.775-51.409c-2.145-8.002-10.373-12.747-18.371-10.607  c-8.002,2.145-12.751,10.369-10.607,18.371l6.01,22.432l-29.177-16.845c-7.175-4.144-16.349-1.684-20.49,5.49  c-4.143,7.175-1.685,16.349,5.49,20.49l28.889,16.679l-21.977,5.889c-8.002,2.144-12.75,10.369-10.606,18.371  c1.796,6.701,7.856,11.121,14.479,11.121c1.285,0,2.592-0.167,3.893-0.515l50.953-13.654l36.004,20.787l-40.687,10.902  c-8.003,2.145-12.751,10.37-10.607,18.372c1.796,6.701,7.856,11.121,14.479,11.121c1.285,0,2.592-0.167,3.893-0.515l69.665-18.667  l47.648,27.51l-47.293,27.305l-70.226-18.817c-7.998-2.137-16.228,2.604-18.372,10.606c-2.144,8.002,2.604,16.228,10.607,18.372  l41.247,11.053L95.445,325.13l-51.41-13.776c-7.998-2.137-16.228,2.604-18.372,10.607c-2.144,8.001,2.604,16.227,10.606,18.371  l22.433,6.011l-29.177,16.845c-7.175,4.142-9.633,13.315-5.49,20.49c2.778,4.813,7.82,7.502,13.004,7.502  c2.545,0,5.124-0.648,7.486-2.012l28.887-16.678l-5.888,21.976c-2.144,8.002,2.605,16.227,10.607,18.371  c1.3,0.348,2.605,0.515,3.892,0.515c6.622,0,12.684-4.42,14.479-11.122l13.653-50.953l36.004-20.787l-10.902,40.688  c-2.144,8.002,2.605,16.227,10.607,18.371c1.3,0.348,2.605,0.515,3.892,0.515c6.622,0,12.684-4.42,14.479-11.122l18.667-69.665  l47.648-27.51v54.61l-51.409,51.408c-5.857,5.857-5.858,15.355,0,21.213c2.929,2.93,6.768,4.394,10.606,4.394  c3.838,0,7.678-1.465,10.606-4.394l30.196-30.196v41.652l-37.634,37.634c-5.858,5.857-5.858,15.355,0,21.213  c2.929,2.929,6.768,4.394,10.606,4.394s7.678-1.465,10.606-4.394l16.421-16.421v33.691c0,6.578,4.286,12.389,10.57,14.331  c1.463,0.452,2.954,0.67,4.429,0.67c4.86,0,9.537-2.37,12.385-6.537l26.581-38.89c11.576-16.936,32.391-23.833,51.789-17.161  l45.898,15.785c4.654,1.6,9.8,0.816,13.766-2.101s6.248-7.595,6.106-12.516l-1.354-47.085  c-0.591-20.507,12.193-38.319,31.811-44.325l46.41-14.208c4.707-1.441,8.408-5.101,9.902-9.791c1.493-4.69,0.591-9.815-2.416-13.714  L457.656,283.734z M331.354,339.677c-19.158,19.596-43.948,31.833-70.804,35.174v-30.338c42.379-7.247,75-44.614,75-88.727  c0-44.516-32.489-81.58-75-88.743v-30.321c59.115,7.404,105,57.975,105,119.064C365.55,287.329,353.406,317.123,331.354,339.677z"/>















</svg>
